<svg xmlns="http://www.w3.org/2000/svg" viewBox="0 0 90 90">
	<defs>
		<pattern id="world" patternUnits="userSpaceOnUse" width="152" height="91">
			<rect width="152" height="100%" fill="#00c"/>
			<g fill="#080" stroke="none">
				<path d="M66.531342,0.999999 C64.723808,3.340244 62.681561,5.991518 60.103577,7.930513 C57.677826,9.755013 54.686977,10.828193 51.259102,12.582900 C49.423088,11.361589 47.181301,9.683373 52.418369,5.887211 C48.643063,5.143189 46.171284,4.656063 44.641586,4.354596 C44.641586,7.277944 44.593365,9.083221 44.655308,10.884712 C44.715889,12.646755 44.888798,14.404937 45.079872,17.125435 C40.739754,22.368982 30.686871,23.490938 28.541845,31.874199 C26.245399,31.518618 23.837179,30.665472 21.617382,31.013641 C20.576927,31.176834 19.899908,33.657169 20.060568,35.663670 C21.368824,35.046329 22.677078,34.428993 24.159052,33.729683 C25.146753,36.780701 26.033493,39.519855 27.229742,43.215088 C25.634014,42.698002 24.512905,42.513309 23.577635,41.993950 C21.709120,40.956375 20.073166,39.385754 18.110586,38.652096 C10.628484,35.855114 7.091756,27.100872 10.366441,19.932247 C11.130901,18.258762 10.884978,15.642112 10.079145,13.946407 C9.704731,13.158531 6.877177,13.428232 5.161267,13.424868 C4.054305,13.422696 2.946606,13.795129 1.419619,13.999840 C1.000000,12.611111 1.000000,11.222222 1.272384,9.780163 C6.813435,7.801299 11.753420,4.327284 17.904037,7.440283 C19.304773,8.149235 21.649931,6.935698 23.570717,6.686535 C26.665901,6.285029 29.965839,5.106750 32.826427,5.772579 C37.828350,6.936824 39.302067,6.232362 39.000000,1.000000 C48.020893,1.000000 57.041790,1.000000 66.531342,0.999999 M35.022671,10.477389 C33.663811,11.218746 32.304947,11.960102 30.260744,13.075362 C32.300190,13.998991 33.664959,14.617072 35.029732,15.235153 C33.523869,13.479067 32.018005,11.722980 30.512146,9.966895 C34.248035,9.833735 37.983925,9.700575 41.719814,9.567415 C41.205990,9.025841 40.692169,8.484266 40.178345,7.942691 C39.564251,8.337250 38.984932,8.808236 38.327427,9.107388 C37.468410,9.498221 36.547531,9.753077 35.022671,10.477389 z" />
				<path d="M35.399994,78.000000 C34.327827,73.533661 33.258698,69.082558 33.086452,64.597023 C32.882500,59.285843 28.604811,56.424278 26.625580,52.223072 C25.424744,49.674126 26.920389,40.841515 29.476500,40.320847 C32.209629,39.764118 35.676487,40.627094 38.254612,41.965446 C42.998550,44.428116 47.326187,47.692738 52.756378,51.227970 C48.966438,57.500877 45.014229,63.777523 41.368507,70.227402 C40.173092,72.342278 39.773159,74.906784 39.004726,77.632843 C37.933331,78.000000 36.866661,78.000000 35.399994,78.000000 z" />
				<path d="M151.000000,65.571533 C150.282745,66.224129 149.385071,66.246880 148.875793,66.703156 C142.963821,71.999763 142.484726,71.992950 137.428665,66.315277 C134.741165,67.007416 132.172348,67.668991 128.791336,68.539742 C129.099289,65.098763 128.360519,61.491467 129.756943,60.208916 C132.703323,57.502781 136.607239,55.562260 140.436371,54.204880 C142.514938,53.468048 145.246490,54.573231 147.884003,54.435516 C148.084503,54.023495 147.979233,53.927574 147.606476,54.199993 C148.489136,56.314941 149.744568,58.157471 151.000000,60.000000 C151.000000,61.714359 151.000000,63.428715 151.000000,65.571533 z" />
				<path d="M146.562134,11.737865 C145.181931,13.750383 144.125565,15.550019 142.602524,18.144663 C141.411087,16.557369 140.031952,14.720024 138.645065,12.872355 C137.514954,13.078637 135.499237,13.446573 133.645782,13.784892 C134.598938,15.504720 136.306335,17.552132 136.831848,19.867769 C137.236404,21.650377 136.154846,23.770250 136.413864,26.004051 C136.083878,28.024879 132.090408,27.937967 133.688721,31.460840 C133.877319,31.876545 132.200836,33.145844 131.379227,34.010250 C130.648193,34.779381 129.285690,35.520966 129.267059,36.300167 C129.159424,40.803352 127.333794,43.242065 122.577766,42.334076 C121.346436,40.126823 119.931808,37.590996 118.504509,35.032463 C113.012634,35.062023 114.162567,40.076851 111.940292,44.121571 C110.305702,41.086510 109.183319,38.751369 107.835732,36.554375 C105.295944,32.413734 103.754837,32.488464 100.856438,36.296749 C99.831818,37.643024 98.097519,38.449177 96.701088,39.491566 C100.202316,42.370289 96.510292,44.527367 95.212433,45.971802 C92.940964,48.499798 92.703659,51.300076 91.706940,54.182858 C90.031975,59.027309 86.698555,63.371090 83.593658,67.579323 C83.054062,68.310677 79.535034,69.662109 78.867485,65.828972 C78.242012,62.237411 76.916779,58.772770 76.018990,55.222061 C75.237694,52.132072 74.868073,48.909542 73.774170,45.945763 C73.476616,45.139568 71.149490,44.562836 69.873596,44.740566 C66.779976,45.171501 64.212730,45.351910 61.979527,42.371284 C59.304050,38.800354 60.135471,35.059517 61.790070,32.056343 C63.388672,29.154806 64.846642,26.741947 65.440704,23.221716 C65.897606,20.514194 70.014076,18.385422 72.592880,16.100504 C73.288994,15.483724 74.311592,15.235427 74.090721,15.341071 C74.193398,13.155447 73.701035,11.257634 74.433090,10.244954 C77.258141,6.337020 81.534973,6.379365 85.634018,7.383649 C89.443748,8.317052 92.613472,6.766963 96.107010,6.198914 C101.858109,5.263783 107.714920,1.907654 114.041718,5.260018 C116.418434,6.519364 119.854599,5.742433 122.802032,5.968456 C131.380646,6.626307 139.956360,7.321877 149.202881,8.055810 C147.972076,9.898723 147.429031,10.711852 146.562134,11.737865 M84.043900,25.975758 C81.524475,25.790005 79.005058,25.604252 76.485634,25.418499 C76.459099,26.144814 76.432564,26.871130 76.406029,27.597446 C80.149796,27.597446 83.893562,27.597446 87.637329,27.597446 C87.640594,27.128563 87.643852,26.659678 87.647118,26.190794 C86.694626,26.126150 85.742142,26.061506 84.043900,25.975758 M132.123276,26.781961 C132.454529,27.135822 132.785782,27.489685 133.117020,27.843552 C133.001846,27.360340 132.886688,26.877129 132.123276,26.781961 z" />
				<path d="M129.498505,49.785789 C126.003311,44.268188 131.126968,44.666538 133.807312,42.590172 C133.820282,46.274586 135.213776,49.982628 129.498505,49.785789 z"/><path d="M96.876801,54.814957 C96.638657,57.057915 96.490273,58.989929 95.893272,60.771626 C95.605461,61.630585 94.472755,62.206444 93.722610,62.910492 C93.168724,61.857460 91.874130,60.332600 92.191414,59.834507 C93.447586,57.862495 95.208397,56.211941 96.876801,54.814957 z" />
			</g>
			<rect width="152" height="10" y="81" fill="#fff" />
		</pattern>
		<clipPath id="globe">
			<circle cx="45" cy="45" r="45" />
		</clipPath>
	</defs>
	<g clip-path="url(#globe)">
		<rect width="242" height="100%" fill="url(#world)">
			<animateTransform attributeName="transform" attributeType="XML" type="translate" from="0 0" to="-152 0" dur="60s" repeatCount="indefinite" />
		</rect>
	</g>
</svg>
